<mxfile host="app.diagrams.net" modified="2023-10-06T06:48:05.617Z" agent="Mozilla/5.0 (Macintosh; Intel Mac OS X 10_15_7) AppleWebKit/537.36 (KHTML, like Gecko) Chrome/116.0.0.0 Safari/537.36" version="22.0.3" etag="M-bDEJxSVy8IoJATvhm7" type="github">
  <diagram name="Page-1" id="7uUNHB3D6bnJ25_Q-u6E">
    <mxGraphModel>
      <root>
        <mxCell id="0" />
        <mxCell id="1" parent="0" />
      </root>
    </mxGraphModel>
  </diagram>
</mxfile>
